<svg xmlns="http://www.w3.org/2000/svg" width="126.647" height="126.647" viewBox="0 0 126.647 126.647"><defs><style>.a{fill:#15141b;}</style></defs><g transform="translate(90.764 4.203)"><path class="a" d="M369.329,43.387V41.044a14.776,14.776,0,1,0-21.108,0v2.343H344v4.222h29.551V43.387Zm-2.687-5.649a10.532,10.532,0,0,1-.832.832,2.111,2.111,0,0,0-.7,1.57v3.246h-4.222V37.929l5.714-5.714-2.985-2.985-4.84,4.84-4.84-4.84-2.985,2.985,5.714,5.714v5.458h-4.222V40.143a2.111,2.111,0,0,0-.7-1.573,10.554,10.554,0,1,1,14.9-.832Z" transform="translate(-344 -15.928)"/></g><g transform="translate(16.886 16.886)"><rect class="a" width="4.222" height="4.222"/></g><g transform="translate(92.874 48.548)"><rect class="a" width="4.222" height="4.222"/></g><g transform="translate(8.443 8.443)"><path class="a" d="M42.554,32A10.554,10.554,0,1,0,53.108,42.554,10.554,10.554,0,0,0,42.554,32Zm0,16.886a6.332,6.332,0,1,1,6.332-6.332A6.332,6.332,0,0,1,42.554,48.886Z" transform="translate(-32 -32)"/></g><path class="a" d="M124.536,73.877H80.21V2.111A2.111,2.111,0,0,0,78.1,0H2.111A2.111,2.111,0,0,0,0,2.111V116.093A2.111,2.111,0,0,0,2.111,118.2h8.443v2.111a6.332,6.332,0,0,0,12.665,0V118.2h19v6.332a2.111,2.111,0,0,0,2.111,2.111h80.21a2.111,2.111,0,0,0,2.111-2.111V75.988A2.111,2.111,0,0,0,124.536,73.877ZM122.214,78.1a10.573,10.573,0,0,1-10.343,8.443H56.991A10.573,10.573,0,0,1,46.648,78.1ZM19,120.315a2.111,2.111,0,0,1-4.222,0v-6.332H19Zm0-10.554H14.775v-4.222H19Zm0-8.443H14.775V67.545H19ZM15.025,63.324,16.886,59.6l1.862,3.723ZM42.216,75.988v37.994h-19V63.324A2.11,2.11,0,0,0,23,62.38l-4.222-8.443a2.2,2.2,0,0,0-3.778,0L10.776,62.38a2.11,2.11,0,0,0-.222.944v50.659H4.222V4.222H75.988V73.877H44.326A2.111,2.111,0,0,0,42.216,75.988Zm80.21,46.437H46.437V86.31a14.727,14.727,0,0,0,10.554,4.454h54.88a14.727,14.727,0,0,0,10.554-4.454Z"/><g transform="translate(84.431 40.105)"><path class="a" d="M360.1,152H322.111A2.111,2.111,0,0,0,320,154.111V179.44a2.111,2.111,0,0,0,2.111,2.111H360.1a2.111,2.111,0,0,0,2.111-2.111V154.111A2.111,2.111,0,0,0,360.1,152Zm-2.111,25.329H324.222V156.222h33.773Z" transform="translate(-320 -152)"/></g><g transform="translate(103.428 56.991)"><rect class="a" width="10.554" height="4.222"/></g><g transform="translate(35.883 12.665)"><rect class="a" width="35.883" height="4.222"/></g><g transform="translate(35.883 21.108)"><rect class="a" width="27.44" height="4.222"/></g><g transform="translate(50.659 105.539)"><rect class="a" width="4.222" height="4.222"/></g><g transform="translate(61.213 105.539)"><rect class="a" width="27.44" height="4.222"/></g><g transform="translate(61.213 113.982)"><rect class="a" width="18.997" height="4.222"/></g><g transform="translate(103.428 48.548)"><rect class="a" width="14.775" height="4.222"/></g></svg>