<svg xmlns="http://www.w3.org/2000/svg" width="131" height="131" viewBox="0 0 131 131"><defs><style>.a{fill:#15141b;}</style></defs><path class="a" d="M192.008,170a22,22,0,1,0,22,22A22.028,22.028,0,0,0,192.008,170Zm0,40.171A18.166,18.166,0,1,1,210.174,192,18.186,18.186,0,0,1,192.008,210.167Zm0,0" transform="translate(-126.507 -126.501)"/><path class="a" d="M227.727,218a9.723,9.723,0,1,0,9.723,9.723A9.734,9.734,0,0,0,227.727,218Zm0,15.608a5.885,5.885,0,1,1,5.885-5.885A5.892,5.892,0,0,1,227.727,233.6Zm0,0" transform="translate(-162.226 -162.219)"/><path class="a" d="M122.736,29.483a1.927,1.927,0,0,0,.508-.789l7.513-22.539A4.675,4.675,0,0,0,124.843.242L102.3,7.755a1.954,1.954,0,0,0-.751.464L78.283,31.491a63.429,63.429,0,0,0-25.545,0L45.571,24.32a4.679,4.679,0,0,0-4.994-1.05l-4.352-4.352-1.72-9.225A4.463,4.463,0,0,0,31.013,6.13L6.267.993A4.478,4.478,0,0,0,.973,6.287L6.109,31.034a4.463,4.463,0,0,0,3.564,3.492l9.225,1.72,4.374,4.375a4.678,4.678,0,0,0,1.074,4.924l.283.283c-6.216,6.054-9.788,13.1-9.788,19.671s3.567,13.607,9.776,19.658L16.98,92.795l-.007-.007a3.3,3.3,0,0,0-4.662,0l-3.9,3.9a3.3,3.3,0,0,0,0,4.662l.007.007L2.177,107.6a7.429,7.429,0,0,0,0,10.508l10.717,10.718a7.431,7.431,0,0,0,10.508,0l6.243-6.243.007.007a3.3,3.3,0,0,0,4.662,0l3.9-3.9a3.3,3.3,0,0,0,0-4.662l-.008-.007L52.719,99.505a63.4,63.4,0,0,0,25.583,0l10.167,10.166a1.919,1.919,0,1,0,2.714-2.714l-8.517-8.517A58.461,58.461,0,0,0,101.093,89.6q1.268-.919,2.442-1.89l15.881,15.88-15.8,15.8-6.1-6.1A1.919,1.919,0,0,0,94.8,116l9.7,9.7a15.009,15.009,0,0,0,21.225-21.225L106.4,85.145c6.2-6.048,9.765-13.087,9.765-19.647s-3.568-13.608-9.777-19.659l16.3-16.3c.017-.017.032-.036.048-.053.227-.213-.016.017,0,0Zm.278,93.505a11.184,11.184,0,0,1-15.8,0l-.884-.885,15.8-15.8.885.884A11.184,11.184,0,0,1,123.014,122.988ZM126.058,3.883a.837.837,0,0,1,1.058,1.058l-1.959,5.876a7.992,7.992,0,0,1-4.917-4.994Zm-9.463,3.154a11.935,11.935,0,0,0,7.35,7.419l-3.871,11.614-3.693-.258a11.833,11.833,0,0,1-10.974-10.637l-.432-4.264ZM90.55,35.38l13.238-13.238a15.667,15.667,0,0,0,4.8,4.967L97,38.7A57.8,57.8,0,0,0,90.55,35.38Zm10.859-21.589.179,1.769a15.86,15.86,0,0,0,.544,2.811L86.668,33.834q-1.98-.708-4.021-1.281ZM9.867,30.254,4.73,5.508a.642.642,0,0,1,.618-.772c.044,0,24.885,5.151,24.885,5.151a.636.636,0,0,1,.5.509l1.644,8.816L19.191,32.4l-8.815-1.644a.637.637,0,0,1-.51-.5ZM28.5,28.518l5.951-5.951L37.579,25.7l-11.9,11.9-3.132-3.131ZM27.059,42.831a.838.838,0,0,1,0-1.183L41.674,27.033a.838.838,0,0,1,1.183,0l5.515,5.515a58.489,58.489,0,0,0-18.464,8.846q-1.255.91-2.417,1.87Zm.42,44.891q1.169.962,2.43,1.88c.192.139.387.275.581.412L22.344,98.16l-2.651-2.652Zm-2.422,13.151L33.77,92.16A57.6,57.6,0,0,0,40.2,95.5L29.943,105.758Zm6.926,18.617-9.87-9.869a1.919,1.919,0,0,0-2.714,2.714l7.531,7.531-6.244,6.243a3.6,3.6,0,0,1-5.08,0L4.89,115.391a3.6,3.6,0,0,1,0-5.08l6.243-6.244L13.068,106a1.919,1.919,0,0,0,2.715-2.714l-4.274-4.273,3.132-3.132.977.977,0,0,0,0,18.506,18.506,0,0,0,0,.978.978Zm3.507-8.183-2.834-2.834,11.409-11.41q2.111.768,4.289,1.38ZM112.323,65.5c0,7.026-5.04,14.875-13.484,21A57.092,57.092,0,0,1,65.5,96.969,57.093,57.093,0,0,1,32.161,86.5c-8.442-6.123-13.484-13.972-13.484-21s5.041-14.875,13.484-21A57.093,57.093,0,0,1,65.5,34.027,57.092,57.092,0,0,1,98.84,44.5C107.283,50.623,112.323,58.472,112.323,65.5Zm-11.231-24.1c-.262-.191-.528-.378-.795-.564l11.7-11.7a1.932,1.932,0,0,0,.222-.269,15.806,15.806,0,0,0,3.9.775l.974.068L103.523,43.274q-1.169-.962-2.431-1.88Zm0,0" transform="translate(0 0.001)"/><path class="a" d="M63.362,58.018a3.836,3.836,0,1,0,0,5.428,3.843,3.843,0,0,0,0-5.428Zm0,0" transform="translate(-42.277 -42.338)"/></svg>