<svg xmlns="http://www.w3.org/2000/svg" xmlns:xlink="http://www.w3.org/1999/xlink" width="163.317" height="42" viewBox="0 0 163.317 42">
  <defs>
    <clipPath id="clip-path">
      <path id="Trazado_2" data-name="Trazado 2" d="M1090.424,506.1l.095-.027a.1.1,0,0,0-.11-.049.1.1,0,1,0,.057.2.1.1,0,0,0,.069-.1l-.095.027Z" transform="translate(-1090.332 -506.02)"/>
    </clipPath>
    <clipPath id="clip-path-3">
      <path id="Trazado_5" data-name="Trazado 5" d="M1092.255,507.07l-.095.027.015.054.1-.027c0-.011.006-.02,0-.03S1092.26,507.079,1092.255,507.07Z" transform="translate(-1092.16 -507.07)"/>
    </clipPath>
  </defs>
  <g id="Grupo_176" data-name="Grupo 176" transform="translate(-894.683 -68)">
    <g id="LOGO_PARA_INSTAGRAM" data-name="LOGO PARA INSTAGRAM" transform="translate(2357.653 -268.34)">
      <g id="XMLID_245_" transform="translate(-1462.97 336.34)">
        <g id="XMLID_276_" transform="translate(8.778 27.873)">
          <path id="XMLID_277_" d="M686.865,986.71l-.894,1.566-4.361,1.207L684,987.491Z" transform="translate(-681.61 -986.71)" fill="rgba(0,0,0,0)"/>
        </g>
        <g id="XMLID_274_" transform="translate(2.983 11.332)">
          <path id="XMLID_275_" d="M566.454,657.72a.718.718,0,0,1-.08.03l-.014.006.007-.01Z" transform="translate(-566.36 -657.72)" fill="rgba(0,0,0,0)"/>
        </g>
        <g id="XMLID_272_" transform="translate(1.071 33.393)">
          <path id="XMLID_273_" d="M528.464,1096.589l-.124.034c.014-.044.027-.089.044-.133A.572.572,0,0,1,528.464,1096.589Z" transform="translate(-528.34 -1096.49)" fill="#4072ad"/>
        </g>
        <g id="XMLID_267_" transform="translate(29.328 3.705)">
          <g id="XMLID_268_">
            <path id="Trazado_1" data-name="Trazado 1" d="M1090.424,506.1l.095-.027a.1.1,0,0,0-.11-.049.1.1,0,1,0,.057.2.1.1,0,0,0,.069-.1l-.095.027Z" transform="translate(-1090.332 -506.02)" fill="#221d1f"/>
            <g id="Grupo_2" data-name="Grupo 2" clip-path="url(#clip-path)">
              <path id="XMLID_271_" d="M1090.144,505.84l.161.172v.058h-.214v-.23Z" transform="translate(-1090.102 -505.849)" fill="#221d1f"/>
            </g>
            <g id="Grupo_3" data-name="Grupo 3" clip-path="url(#clip-path)">
              <path id="XMLID_270_" d="M1091.32,506.012l-.16-.172h.16Z" transform="translate(-1091.118 -505.849)" fill="#221d1f"/>
            </g>
          </g>
        </g>
        <g id="XMLID_262_" transform="translate(29.42 3.757)">
          <g id="XMLID_263_">
            <path id="Trazado_4" data-name="Trazado 4" d="M1092.255,507.07l-.095.027.015.054.1-.027c0-.011.006-.02,0-.03S1092.26,507.079,1092.255,507.07Z" transform="translate(-1092.16 -507.07)" fill="#221d1f"/>
            <g id="Grupo_4" data-name="Grupo 4" clip-path="url(#clip-path-3)">
              <path id="XMLID_266_" d="M1092.167,507.07l.075.08h-.082v-.08Z" transform="translate(-1092.16 -507.07)" fill="#221d1f"/>
            </g>
            <g id="Grupo_5" data-name="Grupo 5" clip-path="url(#clip-path-3)">
              <path id="XMLID_265_" d="M1092.375,507.15l-.075-.08h.11v.08Z" transform="translate(-1092.293 -507.07)" fill="#221d1f"/>
            </g>
          </g>
        </g>
        <g id="XMLID_257_" transform="translate(29.42 3.757)">
          <g id="XMLID_258_">
            <path id="Trazado_7" data-name="Trazado 7" d="M1092.255,507.07l-.095.027.015.054.1-.027c0-.011.006-.02,0-.03S1092.26,507.079,1092.255,507.07Z" transform="translate(-1092.16 -507.07)" fill="#221d1f"/>
            <g id="Grupo_6" data-name="Grupo 6" clip-path="url(#clip-path-3)">
              <path id="XMLID_261_" d="M1092.167,507.07l.075.08h-.082v-.08Z" transform="translate(-1092.16 -507.07)" fill="#221d1f"/>
            </g>
            <g id="Grupo_7" data-name="Grupo 7" clip-path="url(#clip-path-3)">
              <path id="XMLID_260_" d="M1092.375,507.15l-.075-.08h.11v.08Z" transform="translate(-1092.293 -507.07)" fill="#221d1f"/>
            </g>
          </g>
        </g>
        <path id="XMLID_256_" d="M1100.05,710.706l.536-.935,4.079-1.111a1.5,1.5,0,0,1-1.054,1.056.05.05,0,0,1-.02.01Z" transform="translate(-1070.234 -694.767)" fill="#fff"/>
        <g id="XMLID_247_" transform="translate(0)">
          <path id="XMLID_255_" d="M1001.87,443.273l-1.15-.659,6.412-1.775-.678,1.186Z" transform="translate(-975.898 -440.413)" fill="#fff"/>
          <path id="XMLID_248_" d="M531.256,449.827l.342-.094,2.431-.674a.456.456,0,0,1,.763-.21.436.436,0,0,1,.081.1l1.539-.419.089-.154.713-1.248,4.293-1.168c0-.041.009-.08.009-.121a1.5,1.5,0,0,0-.215-.765l-8.338,2.27-.342.092-3.321.905a.466.466,0,0,1-.339.453.473.473,0,1,1-.248-.912.466.466,0,0,1,.522.217l3.564-.969.341-.094,8-2.178a1.49,1.49,0,0,0-1.656-.422l-5.775,1.6-.342.094-3.855,1.067v-6.106l-1.367-.783a.466.466,0,0,1-.561.078.472.472,0,1,1,.469-.82.468.468,0,0,1,.217.523l1.242.71v-2.5l10.718-2.967a.2.2,0,0,0,.046-.018,1.5,1.5,0,0,0,1.028-.712l-9.149,2.49a.467.467,0,0,1-.341.453.473.473,0,0,1-.248-.912.468.468,0,0,1,.523.217l9.346-2.543a1.53,1.53,0,0,0,.078-.469,1.5,1.5,0,0,0-2.03-1.4.191.191,0,0,0-.053.009l-.825.229-.855,1.494-4.785,1.3-1.457-.834-2,.552-3,.831-17.131,4.74-.167.046a.02.02,0,0,0-.011,0,3.106,3.106,0,0,0-.863,5.5c.016.013.034.023.05.037l10.7,7.415.007.006c.051.034.1.067.151.1a1.48,1.48,0,0,1,.486.715,1.388,1.388,0,0,1,.057.245,1.6,1.6,0,0,1,.025.213,1.49,1.49,0,0,1-.419,1.035,1.362,1.362,0,0,1-.248.208l-1.83,1.529-.406.339-5.186,4.334-.462.387-2.63,2.2-.124.1a1.485,1.485,0,0,0-.371.552.551.551,0,0,1,.08.1l-.124.034a1.591,1.591,0,0,0-.05.273c0,.048-.014.093-.014.14a1.42,1.42,0,0,0,.02.2,1.5,1.5,0,0,0,1.48,1.3,1.52,1.52,0,0,0,.373-.05.033.033,0,0,0,.014,0l.058-.016.014-.005,16.52-4.572v9.7a1.529,1.529,0,0,0,.094.506,1.5,1.5,0,0,0,2.906-.506V462.3l10.162-2.813-.438-.25-14.953,4.07a.467.467,0,0,1-.341.453.473.473,0,1,1-.248-.912.467.467,0,0,1,.523.218l9.847-2.682-1.841-1.052-6.4,1.741a.467.467,0,0,1-.341.452.473.473,0,1,1-.248-.912.465.465,0,0,1,.522.217l6.5-1.768,2.147,1.228v0l4.865-1.324.746.426.375-.1.058-.014.009,0,0,0a.005.005,0,0,0,0,0,1.5,1.5,0,0,0-.449-2.93,1.572,1.572,0,0,0-.365.044l-.08.023,0,0-.009,0-10.044,2.779v-8.884ZM510.028,443.7l-.014.005.007-.011.087-.025A.735.735,0,0,1,510.028,443.7Zm16.49,16.32-6,1.663-.344.094-4.361,1.207,2.385-1.992.461-.385,4.528-3.782.463-.387.478-.4.016-.013a1.46,1.46,0,0,0,.349-.4,1.572,1.572,0,0,0,.117-.224,1.478,1.478,0,0,0-.674-1.9l-9.852-6.954-.011-.007a2.512,2.512,0,0,1-.24-.168,2.276,2.276,0,0,1-.822-1.441,2.093,2.093,0,0,1-.025-.334,2.237,2.237,0,0,1,.247-1.033,2.286,2.286,0,0,1,1.319-1.134,1.75,1.75,0,0,1,.192-.055l11.778-3.259v20.891Z" transform="translate(-507.03 -432.34)" fill="#fff"/>
        </g>
        <path id="XMLID_246_" d="M848.729,848.44l-.069.12.064.037.069-.12a.1.1,0,0,0-.064-.037Z" transform="translate(-831.483 -827.519)" fill="#221d1f"/>
      </g>
    </g>
    <text id="syfte" transform="translate(939 97)" fill="#fff" font-size="19" font-family="Aquatico-Regular, Aquatico"><tspan x="0" y="0">syfte</tspan></text>
    <text id="c.a" transform="translate(1018 97)" fill="#fff" font-size="19" font-family="Aquatico-Regular, Aquatico"><tspan x="0" y="0">c.a</tspan></text>
  </g>
</svg>
