<svg xmlns="http://www.w3.org/2000/svg" width="131.697" height="131.653" viewBox="0 0 131.697 131.653"><defs><style>.a{fill:#15141b;}</style></defs><g transform="translate(8.826 8.784)"><path class="a" d="M78.258,32.106a46.076,46.076,0,1,0,46.076,46.076A46.076,46.076,0,0,0,78.258,32.106Zm0,4.388A41.644,41.644,0,0,1,112.3,54.2l-5.485,5.485a8.659,8.659,0,0,0-4.423-1.251,8.776,8.776,0,0,0-8.776,8.776,8.659,8.659,0,0,0,1.244,4.43L80.494,86.009a8.509,8.509,0,0,0-8.86,0L61.656,76.03A8.659,8.659,0,0,0,62.9,71.6a8.759,8.759,0,0,0-17.241-2.194h-8.14A41.747,41.747,0,0,1,78.258,36.494Zm28.523,30.718a4.388,4.388,0,1,1-4.388-4.388A4.388,4.388,0,0,1,106.782,67.212ZM80.452,93.541a4.388,4.388,0,1,1-4.388-4.388A4.388,4.388,0,0,1,80.452,93.541ZM58.511,71.6a4.388,4.388,0,1,1-4.388-4.388A4.388,4.388,0,0,1,58.511,71.6Zm40,43.034a41.68,41.68,0,0,1-61.709-40.84h8.853a8.777,8.777,0,0,0,8.465,6.582,8.659,8.659,0,0,0,4.43-1.244l9.979,9.979a8.659,8.659,0,0,0-1.244,4.43,8.776,8.776,0,1,0,17.553,0,8.659,8.659,0,0,0-1.244-4.43L97.964,74.744a8.66,8.66,0,0,0,4.43,1.244,8.776,8.776,0,0,0,8.776-8.776,8.659,8.659,0,0,0-1.244-4.43L114.709,58A41.651,41.651,0,0,1,98.514,114.634Z" transform="translate(-32.182 -32.106)"/></g><g transform="translate(0 0)"><path class="a" d="M109.756,22.028a8.777,8.777,0,0,0,8.465-6.582H131.7V11.058H118.221a8.758,8.758,0,0,0-17.241,2.194,8.659,8.659,0,0,0,1.244,4.43l-3.855,3.855a54.853,54.853,0,1,0-13.7,79.44l6.622,6.622,3.1,3.1,17.663,17.663A11.5,11.5,0,0,0,128.327,112.1L110.664,94.434l-3.1-3.1L100.94,84.71a54.671,54.671,0,0,0,0-59.539l4.388-4.388A8.662,8.662,0,0,0,109.756,22.028Zm0-13.165a4.388,4.388,0,1,1-4.388,4.388A4.388,4.388,0,0,1,109.756,8.864ZM125.224,115.2a7.116,7.116,0,0,1-9.948,10.177c-.039-.038-.077-.076-.114-.114L97.5,107.6l10.062-10.062ZM104.459,94.434,94.4,104.5l-6.073-6.073c.309-.237.6-.5.9-.742s.658-.535.985-.81c.481-.4.954-.812,1.42-1.231.239-.219.467-.439.7-.658q1.349-1.264,2.613-2.613c.219-.235.439-.463.658-.7.419-.465.827-.939,1.231-1.42q.413-.487.81-.985c.241-.3.5-.592.739-.9ZM95.95,84.243c-.691.965-1.4,1.911-2.157,2.822-.219.265-.454.522-.68.783q-1.007,1.172-2.08,2.273-.467.483-.95.95-1.1,1.073-2.273,2.08c-.261.219-.518.459-.783.68-.911.753-1.856,1.466-2.822,2.157A50.544,50.544,0,1,1,95.95,84.243Z" transform="translate(0 -0.08)"/></g></svg>