<svg xmlns="http://www.w3.org/2000/svg" width="162.934" height="145.153" viewBox="0 0 162.934 145.153"><defs><style>.a{fill:#191919;}</style></defs><g transform="translate(0 -27.937)"><g transform="translate(0 27.937)"><path class="a" d="M153.1,27.937H9.836A9.847,9.847,0,0,0,0,37.773v98.912a9.847,9.847,0,0,0,9.836,9.836h49.09v7.157a11.913,11.913,0,0,1-11.9,11.9H36.209a3.756,3.756,0,0,0,0,7.512h90.516a3.756,3.756,0,0,0,0-7.512H115.906a11.913,11.913,0,0,1-11.9-11.9v-7.157H153.1a9.848,9.848,0,0,0,9.837-9.836V37.773A9.847,9.847,0,0,0,153.1,27.937ZM62.348,165.578a19.309,19.309,0,0,0,4.091-11.9v-7.157H96.5v7.157a19.308,19.308,0,0,0,4.091,11.9Zm93.074-28.893a2.327,2.327,0,0,1-2.324,2.324H9.836a2.327,2.327,0,0,1-2.324-2.324V116.945h147.91Zm0-27.253H7.512V37.773a2.327,2.327,0,0,1,2.324-2.324H153.1a2.327,2.327,0,0,1,2.325,2.324v71.659Z" transform="translate(0 -27.937)"/></g><g transform="translate(77.414 123.925)"><circle class="a" cx="4.054" cy="4.054" r="4.054"/></g><g transform="translate(54.95 52.715)"><path class="a" d="M205.631,106.9a3.757,3.757,0,0,0-5.312,0l-26.545,26.545a3.756,3.756,0,0,0,5.312,5.312l26.545-26.545A3.757,3.757,0,0,0,205.631,106.9Z" transform="translate(-172.674 -105.797)"/></g><g transform="translate(86.654 68.097)"><g transform="translate(0 0)"><path class="a" d="M289.286,155.236a3.757,3.757,0,0,0-5.312,0L273.4,165.81a3.756,3.756,0,1,0,5.312,5.312l10.575-10.574A3.756,3.756,0,0,0,289.286,155.236Z" transform="translate(-272.299 -154.136)"/></g></g></g></svg>